<svg width="1280" height="720" xmlns="http://www.w3.org/2000/svg" xmlns:xlink="http://www.w3.org/1999/xlink" overflow="hidden"><defs><clipPath id="clip0"><path d="M0 0 1280 0 1280 720 0 720Z" fill-rule="evenodd" clip-rule="evenodd"/></clipPath></defs><g clip-path="url(#clip0)"><rect x="0" y="0" width="1280" height="720" fill="#E7E6E6"/><rect x="180.5" y="26.5001" width="125" height="679" stroke="#2F528F" stroke-width="1.33333" stroke-miterlimit="8" fill="#4472C4"/><text fill="#FFFFFF" font-family="Calibri,Calibri_MSFontService,sans-serif" font-weight="400" font-size="24" transform="translate(214.36 359)">Client <tspan x="-6.50667" y="29">System</tspan></text><path d="M293.5 98.1667 931.834 98.1668 931.834 98.8335 293.5 98.8334ZM930.5 94.5002 938.5 98.5002 930.5 102.5Z" fill="#4472C4"/><path d="M5.52854e-08-0.333333 626.339-0.333229 626.339 0.333437-5.52854e-08 0.333333ZM625-3.9999 633 0.000104987 625 4.0001Z" fill="#4472C4" transform="matrix(-1 -8.74228e-08 -8.74228e-08 1 938.5 126.5)"/><rect x="938.5" y="68.5001" width="125" height="86" stroke="#2F528F" stroke-width="1.33333" stroke-miterlimit="8" fill="#4472C4"/><text fill="#FFFFFF" font-family="Calibri,Calibri_MSFontService,sans-serif" font-weight="400" font-size="24" transform="translate(949.54 104)">FaceQuest<tspan x="34.8734" y="29">API</tspan><tspan fill="#000000" font-size="27" x="-450.94" y="-48">1. Get URL to upload photos</tspan><tspan fill="#000000" font-family="Courier New,Courier New_MSFontService,sans-serif" font-size="19" x="-417.94" y="-11">/verification/</tspan><tspan fill="#000000" font-family="Courier New,Courier New_MSFontService,sans-serif" font-size="19" x="-261.607" y="-11">uploadurl</tspan><tspan fill="#000000" font-family="Courier New,Courier New_MSFontService,sans-serif" font-size="19" x="-405.94" y="40">URLs to upload photos</tspan></text><path d="M293.5 228.167 931.834 228.167 931.834 228.833 293.5 228.833ZM930.5 224.5 938.5 228.5 930.5 232.5Z" fill="#4472C4"/><rect x="938.5" y="185.5" width="125" height="86" stroke="#2F528F" stroke-width="1.33333" stroke-miterlimit="8" fill="#4472C4"/><text fill="#FFFFFF" font-family="Calibri,Calibri_MSFontService,sans-serif" font-weight="400" font-size="24" transform="translate(949.54 221)">FaceQuest<tspan x="3.73999" y="29">S3 Bucket</tspan><tspan fill="#000000" font-family="Courier New,Courier New_MSFontService,sans-serif" font-size="19" x="-531.44" y="25">Reference</tspan><tspan fill="#000000" font-family="Courier New,Courier New_MSFontService,sans-serif" font-size="19" x="-419.773" y="25">photo</tspan><tspan fill="#000000" font-family="Courier New,Courier New_MSFontService,sans-serif" font-size="19" x="-352.773" y="25">upload</tspan><tspan fill="#000000" font-family="Courier New,Courier New_MSFontService,sans-serif" font-size="19" x="-274.607" y="25">UR</tspan><tspan fill="#000000" font-family="Courier New,Courier New_MSFontService,sans-serif" font-size="19" x="-252.273" y="25">L</tspan><tspan fill="#000000" font-family="Courier New,Courier New_MSFontService,sans-serif" font-size="19" x="-229.94" y="25">returned</tspan><tspan fill="#000000" font-family="Courier New,Courier New_MSFontService,sans-serif" font-size="19" x="-129.44" y="25">by</tspan><tspan fill="#000000" font-family="Courier New,Courier New_MSFontService,sans-serif" font-size="19" x="-95.9401" y="25">(1</tspan><tspan fill="#000000" font-family="Courier New,Courier New_MSFontService,sans-serif" font-size="19" x="-73.6068" y="25">)</tspan><tspan fill="#000000" font-size="27" x="-450.94" y="-15">2</tspan><tspan fill="#000000" font-size="27" x="-437.44" y="-15">. Upload reference photo</tspan></text><path d="M293.5 346.167 931.834 346.167 931.834 346.833 293.5 346.833ZM930.5 342.5 938.5 346.5 930.5 350.5Z" fill="#4472C4"/><rect x="938.5" y="303.5" width="125" height="86" stroke="#2F528F" stroke-width="1.33333" stroke-miterlimit="8" fill="#4472C4"/><text fill="#FFFFFF" font-family="Calibri,Calibri_MSFontService,sans-serif" font-weight="400" font-size="24" transform="translate(949.54 339)">FaceQuest<tspan x="3.74005" y="29">S3 Bucket</tspan><tspan fill="#000000" font-family="Courier New,Courier New_MSFontService,sans-serif" font-size="19" x="-583.94" y="25">U</tspan><tspan fill="#000000" font-family="Courier New,Courier New_MSFontService,sans-serif" font-size="19" x="-572.773" y="25">pload UR</tspan><tspan fill="#000000" font-family="Courier New,Courier New_MSFontService,sans-serif" font-size="19" x="-483.44" y="25">L</tspan><tspan fill="#000000" font-family="Courier New,Courier New_MSFontService,sans-serif" font-size="19" x="-461.107" y="25">for photo</tspan><tspan fill="#000000" font-family="Courier New,Courier New_MSFontService,sans-serif" font-size="19" x="-349.44" y="25">to</tspan><tspan fill="#000000" font-family="Courier New,Courier New_MSFontService,sans-serif" font-size="19" x="-315.94" y="25">be</tspan><tspan fill="#000000" font-family="Courier New,Courier New_MSFontService,sans-serif" font-size="19" x="-282.44" y="25">verified returned by</tspan><tspan fill="#000000" font-family="Courier New,Courier New_MSFontService,sans-serif" font-size="19" x="-47.9399" y="25">(1</tspan><tspan fill="#000000" font-family="Courier New,Courier New_MSFontService,sans-serif" font-size="19" x="-25.6066" y="25">)</tspan><tspan fill="#000000" font-size="27" x="-460.94" y="-18">3. Upload photo to be verified</tspan></text><path d="M293.5 474.167 931.834 474.167 931.834 474.833 293.5 474.833ZM930.5 470.5 938.5 474.5 930.5 478.5Z" fill="#4472C4"/><path d="M5.52854e-08-0.333333 626.339-0.333229 626.339 0.333437-5.52854e-08 0.333333ZM625-3.9999 633 0.000104987 625 4.0001Z" fill="#4472C4" transform="matrix(-1 -8.74228e-08 -8.74228e-08 1 938.5 502.5)"/><rect x="938.5" y="447.5" width="125" height="86" stroke="#2F528F" stroke-width="1.33333" stroke-miterlimit="8" fill="#4472C4"/><text fill="#FFFFFF" font-family="Calibri,Calibri_MSFontService,sans-serif" font-weight="400" font-size="24" transform="translate(949.54 483)">FaceQuest<tspan x="34.8733" y="29">API</tspan><tspan fill="#000000" font-size="27" x="-450.94" y="-51">4</tspan><tspan fill="#000000" font-size="27" x="-437.44" y="-51">. Fire verification request</tspan><tspan fill="#000000" font-family="Courier New,Courier New_MSFontService,sans-serif" font-size="19" x="-384.94" y="-14">/verification</tspan><tspan fill="#000000" font-family="Courier New,Courier New_MSFontService,sans-serif" font-size="19" x="-406.94" y="37">verificationRequestId</tspan></text><path d="M293.5 624.167 931.834 624.167 931.834 624.833 293.5 624.833ZM930.5 620.5 938.5 624.5 930.5 628.5Z" fill="#4472C4"/><path d="M5.52854e-08-0.333333 626.339-0.333229 626.339 0.333437-5.52854e-08 0.333333ZM625-3.9999 633 0.000104987 625 4.0001Z" fill="#4472C4" transform="matrix(-1 -8.74228e-08 -8.74228e-08 1 938.5 652.5)"/><rect x="938.5" y="597.5" width="125" height="86" stroke="#2F528F" stroke-width="1.33333" stroke-miterlimit="8" fill="#4472C4"/><text fill="#FFFFFF" font-family="Calibri,Calibri_MSFontService,sans-serif" font-weight="400" font-size="24" transform="translate(949.54 633)">FaceQuest<tspan x="34.8733" y="29">API</tspan><tspan fill="#000000" font-size="27" x="-450.94" y="-51">5. Track verification request</tspan><tspan fill="#000000" font-family="Courier New,Courier New_MSFontService,sans-serif" font-size="19" x="-492.94" y="-14">/verification/{</tspan><tspan fill="#000000" font-family="Courier New,Courier New_MSFontService,sans-serif" font-size="19" x="-325.44" y="-14">verificationRequestId</tspan><tspan fill="#000000" font-family="Courier New,Courier New_MSFontService,sans-serif" font-size="19" x="-90.9402" y="-14">}</tspan><tspan fill="#000000" font-family="Courier New,Courier New_MSFontService,sans-serif" font-size="19" x="-359.94" y="37">result</tspan></text></g></svg>